<svg width="30" height="37" viewBox="0 0 30 37" fill="none" xmlns="http://www.w3.org/2000/svg">
<path d="M28.5 14.4375L28.9375 11.9375C29.0625 11.4375 28.6875 11 28.1875 11H23.5625L24.4375 5.9375C24.5625 5.4375 24.1875 5 23.6875 5H21.1875C20.8125 5 20.5 5.3125 20.4375 5.625L19.5 11H13.3125L14.25 5.9375C14.3125 5.4375 13.9375 5 13.5 5H10.9375C10.5625 5 10.25 5.3125 10.1875 5.625L9.25 11H4.3125C3.9375 11 3.625 11.3125 3.5625 11.625L3.125 14.125C3.0625 14.625 3.375 15 3.875 15H8.5625L7.125 23H2.1875C1.8125 23 1.5 23.3125 1.4375 23.625L1 26.125C0.875 26.625 1.25 27 1.75 27H6.375L5.5 32.125C5.375 32.625 5.75 33 6.25 33H8.75C9.125 33 9.4375 32.75 9.5 32.4375L10.4375 27H16.625L15.6875 32.125C15.625 32.625 16 33 16.4375 33H19C19.375 33 19.6875 32.75 19.75 32.4375L20.6875 27H25.625C26 27 26.3125 26.75 26.375 26.4375L26.8125 23.9375C26.875 23.4375 26.5625 23 26.0625 23H21.375L22.8125 15H27.75C28.125 15 28.4375 14.75 28.5 14.4375ZM17.3125 23H11.1875L12.625 15H18.75L17.3125 23Z" fill="#0b4739"/>
</svg>
