<svg width="37" height="37" viewBox="0 0 37 37" fill="none" xmlns="http://www.w3.org/2000/svg">
<path d="M18.5 12.3125L7 21.8125V32C7 32.5625 7.4375 33 8 33H15C15.5 33 15.9375 32.5625 15.9375 32V26C15.9375 25.5 16.4375 25 16.9375 25H20.9375C21.5 25 21.9375 25.5 21.9375 26V32C21.9375 32.5625 22.4375 33 22.9375 33H30C30.5 33 31 32.5625 31 32V21.75L19.4375 12.3125C19.3125 12.1875 19.125 12.125 19 12.125C18.8125 12.125 18.625 12.1875 18.5 12.3125ZM36.6875 18.75L31.5 14.4375V5.8125C31.5 5.375 31.125 5.0625 30.75 5.0625H27.25C26.8125 5.0625 26.5 5.375 26.5 5.8125V10.3125L20.875 5.6875C20.375 5.3125 19.6875 5.0625 19 5.0625C18.25 5.0625 17.5625 5.3125 17.0625 5.6875L1.25 18.75C1.0625 18.875 0.9375 19.125 0.9375 19.3125C0.9375 19.5 1.0625 19.6875 1.125 19.8125L2.75 21.75C2.875 21.9375 3.0625 22 3.3125 22C3.5 22 3.6875 21.9375 3.8125 21.8125L18.5 9.75C18.625 9.625 18.8125 9.5625 19 9.5625C19.125 9.5625 19.3125 9.625 19.4375 9.75L34.125 21.8125C34.25 21.9375 34.4375 22 34.625 22C34.875 22 35.0625 21.9375 35.1875 21.75L36.8125 19.8125C36.9375 19.6875 37 19.5 37 19.3125C37 19.125 36.875 18.875 36.6875 18.75Z" fill="#eee"/>
</svg>
