<svg width="32" height="37" viewBox="0 0 32 37" fill="none" xmlns="http://www.w3.org/2000/svg">
<path d="M29 7H3C1.3125 7 0 8.375 0 10V28C0 29.6875 1.3125 31 3 31H29C30.625 31 32 29.6875 32 28V10C32 8.375 30.625 7 29 7ZM29 10V12.5625C27.5625 13.75 25.3125 15.5 20.5625 19.25C19.5 20.0625 17.4375 22.0625 16 22C14.5 22.0625 12.4375 20.0625 11.375 19.25C6.625 15.5 4.375 13.75 3 12.5625V10H29ZM3 28V16.4375C4.375 17.5625 6.4375 19.1875 9.5 21.625C10.875 22.6875 13.3125 25.0625 16 25C18.625 25.0625 21 22.6875 22.4375 21.625C25.5 19.1875 27.5625 17.5625 29 16.4375V28H3Z" fill="#eee"/>
</svg>
