<svg width="33" height="37" viewBox="0 0 33 37" fill="none" xmlns="http://www.w3.org/2000/svg">
<path d="M31.8125 4.5625L25.3125 3.0625C24.625 2.875 23.875 3.25 23.5625 3.9375L20.5625 10.9375C20.3125 11.5625 20.5 12.25 21 12.6875L24.8125 15.8125C22.5625 20.5625 18.625 24.5625 13.75 26.875L10.625 23.0625C10.1875 22.5625 9.5 22.375 8.875 22.625L1.875 25.625C1.1875 25.9375 0.875 26.6875 1 27.375L2.5 33.875C2.6875 34.5625 3.25 35 4 35C20 35 33 22.0625 33 6C33 5.3125 32.5 4.75 31.8125 4.5625Z" fill="#eee"/>
</svg>
