<svg width="37" height="33" viewBox="0 0 37 33" fill="none" xmlns="http://www.w3.org/2000/svg">
<path d="M32.6852 0.597168H9.6343C7.67851 0.597168 6.088 2.18768 6.088 4.14346V7.68976H4.31485C2.35907 7.68976 0.768555 9.28027 0.768555 11.2361V28.9675C0.768555 30.9233 2.35907 32.5138 4.31485 32.5138H14.9537C16.9095 32.5138 18.5 30.9233 18.5 28.9675H32.6852C34.641 28.9675 36.2315 27.377 36.2315 25.4212V4.14346C36.2315 2.18768 34.641 0.597168 32.6852 0.597168ZM7.86115 11.2361H14.9537L14.9484 27.1944H4.31485V11.2361H7.86115ZM18.5 25.4212V11.2361C18.5 9.28027 16.9095 7.68976 14.9537 7.68976H9.6343V4.14346H29.1389V25.4212H18.5Z" fill="#00695C"/>
</svg>
