<svg width="32" height="32" viewBox="0 0 32 32" fill="none" xmlns="http://www.w3.org/2000/svg">
<path d="M26.6667 4H5.33335C3.86269 4 2.66669 5.196 2.66669 6.66667V12C2.66669 13.4707 3.86269 14.6667 5.33335 14.6667H26.6667C28.1374 14.6667 29.3334 13.4707 29.3334 12V6.66667C29.3334 5.196 28.1374 4 26.6667 4ZM5.33335 12V6.66667H26.6667L26.6694 12H5.33335ZM26.6667 17.3333H5.33335C3.86269 17.3333 2.66669 18.5293 2.66669 20V25.3333C2.66669 26.804 3.86269 28 5.33335 28H26.6667C28.1374 28 29.3334 26.804 29.3334 25.3333V20C29.3334 18.5293 28.1374 17.3333 26.6667 17.3333ZM5.33335 25.3333V20H26.6667L26.6694 25.3333H5.33335Z" fill="#00695C"/>
<path d="M22.6667 8H25.3334V10.6667H22.6667V8ZM18.6667 8H21.3334V10.6667H18.6667V8ZM22.6667 21.3333H25.3334V24H22.6667V21.3333ZM18.6667 21.3333H21.3334V24H18.6667V21.3333Z" fill="#00695C"/>
</svg>
