<svg width="32" height="32" viewBox="0 0 32 32" fill="none" xmlns="http://www.w3.org/2000/svg">
<path d="M16 29.3333C17.4727 29.3333 18.6666 28.1394 18.6666 26.6667C18.6666 25.1939 17.4727 24 16 24C14.5272 24 13.3333 25.1939 13.3333 26.6667C13.3333 28.1394 14.5272 29.3333 16 29.3333Z" fill="#00695C"/>
<path d="M16 8C17.4727 8 18.6666 6.80609 18.6666 5.33333C18.6666 3.86058 17.4727 2.66667 16 2.66667C14.5272 2.66667 13.3333 3.86058 13.3333 5.33333C13.3333 6.80609 14.5272 8 16 8Z" fill="#00695C"/>
<path d="M8.45732 26.2093C9.93008 26.2093 11.124 25.0154 11.124 23.5427C11.124 22.0699 9.93008 20.876 8.45732 20.876C6.98456 20.876 5.79065 22.0699 5.79065 23.5427C5.79065 25.0154 6.98456 26.2093 8.45732 26.2093Z" fill="#00695C"/>
<path d="M23.5426 11.124C25.0154 11.124 26.2093 9.93009 26.2093 8.45733C26.2093 6.98457 25.0154 5.79066 23.5426 5.79066C22.0699 5.79066 20.876 6.98457 20.876 8.45733C20.876 9.93009 22.0699 11.124 23.5426 11.124Z" fill="#00695C"/>
<path d="M5.33334 18.668C6.80684 18.668 8.00134 17.4735 8.00134 16C8.00134 14.5265 6.80684 13.332 5.33334 13.332C3.85985 13.332 2.66534 14.5265 2.66534 16C2.66534 17.4735 3.85985 18.668 5.33334 18.668Z" fill="#00695C"/>
<path d="M26.6667 18.6667C28.1394 18.6667 29.3333 17.4728 29.3333 16C29.3333 14.5272 28.1394 13.3333 26.6667 13.3333C25.1939 13.3333 24 14.5272 24 16C24 17.4728 25.1939 18.6667 26.6667 18.6667Z" fill="#00695C"/>
<path d="M8.45732 11.1253C9.93008 11.1253 11.124 9.93143 11.124 8.45867C11.124 6.98591 9.93008 5.792 8.45732 5.792C6.98456 5.792 5.79065 6.98591 5.79065 8.45867C5.79065 9.93143 6.98456 11.1253 8.45732 11.1253Z" fill="#00695C"/>
<path d="M23.5426 26.2107C25.0154 26.2107 26.2093 25.0168 26.2093 23.544C26.2093 22.0712 25.0154 20.8773 23.5426 20.8773C22.0699 20.8773 20.876 22.0712 20.876 23.544C20.876 25.0168 22.0699 26.2107 23.5426 26.2107Z" fill="#00695C"/>
</svg>
