<svg width="38" height="30" viewBox="0 0 38 30" fill="none" xmlns="http://www.w3.org/2000/svg">
<path d="M7.75 5.375H30.25V20.375H34V4.4375C34 2.91406 32.7109 1.625 31.1875 1.625H6.8125C5.23047 1.625 4 2.91406 4 4.4375V20.375H7.75V5.375ZM36.8125 22.25H1.1875C0.660156 22.25 0.25 22.7188 0.25 23.1875V24.125C0.25 26.2344 1.89062 27.875 4 27.875H34C36.0508 27.875 37.75 26.2344 37.75 24.125V23.1875C37.75 22.7188 37.2812 22.25 36.8125 22.25ZM21.6367 16.5664C21.8711 16.8008 22.1641 16.8594 22.5156 16.8594C22.8086 16.8594 23.1016 16.8008 23.3359 16.5664L26.1484 13.7539C26.5586 13.2852 26.5586 12.5234 26.1484 12.0547L23.3359 9.24219C22.8672 8.83203 22.1055 8.83203 21.6367 9.24219C21.2266 9.71094 21.2266 10.4727 21.6367 10.9414L23.6289 12.875L21.6367 14.8672C21.2266 15.3359 21.2266 16.0977 21.6367 16.5664ZM16.3047 9.24219C15.8359 8.83203 15.0742 8.83203 14.6055 9.24219L11.793 12.0547C11.3828 12.5234 11.3828 13.2852 11.793 13.7539L14.6055 16.5664C14.8398 16.8008 15.1328 16.8594 15.4844 16.8594C15.7773 16.8594 16.0703 16.8008 16.3047 16.5664C16.7148 16.0977 16.7148 15.3359 16.3047 14.8672L14.3125 12.875L16.3047 10.9414C16.7148 10.4727 16.7148 9.71094 16.3047 9.24219Z" fill="#ddd"/>
</svg>
