<svg width="34" height="30" viewBox="0 0 34 30" fill="none" xmlns="http://www.w3.org/2000/svg">
<path d="M9.5 14.75C9.5 10.6484 12.8398 7.25 17 7.25C21.1016 7.25 24.5 10.6484 24.5 14.75C24.5 18.9102 21.1016 22.25 17 22.25C12.8398 22.25 9.5 18.9102 9.5 14.75ZM17 19.4375C19.5781 19.4375 21.6875 17.3867 21.6875 14.75C21.6875 12.1719 19.5781 10.0625 17 10.0625C16.9414 10.0625 16.8828 10.0625 16.8242 10.0625C16.9414 10.4141 17 10.707 17 11C17 13.1094 15.3008 14.75 13.25 14.75C12.8984 14.75 12.6055 14.75 12.3125 14.6328C12.3125 14.6914 12.3125 14.75 12.3125 14.75C12.3125 17.3867 14.3633 19.4375 17 19.4375ZM5.69141 6.37109C8.44531 3.79297 12.2539 1.625 17 1.625C21.6875 1.625 25.4961 3.79297 28.25 6.37109C31.0039 8.89062 32.8203 11.9375 33.6992 14.0469C33.875 14.5156 33.875 15.043 33.6992 15.5117C32.8203 17.5625 31.0039 20.6094 28.25 23.1875C25.4961 25.7656 21.6875 27.875 17 27.875C12.2539 27.875 8.44531 25.7656 5.69141 23.1875C2.9375 20.6094 1.12109 17.5625 0.242188 15.5117C0.0664062 15.043 0.0664062 14.5156 0.242188 14.0469C1.12109 11.9375 2.9375 8.89062 5.69141 6.37109ZM17 4.4375C13.1328 4.4375 10.0273 6.19531 7.625 8.42188C5.33984 10.5312 3.81641 12.9922 2.99609 14.75C3.81641 16.5078 5.33984 19.0273 7.625 21.1367C10.0273 23.3633 13.1328 25.0625 17 25.0625C20.8086 25.0625 23.9141 23.3633 26.3164 21.1367C28.6016 19.0273 30.125 16.5078 30.9453 14.75C30.125 12.9922 28.6016 10.5312 26.3164 8.42188C23.9141 6.19531 20.8086 4.4375 17 4.4375Z" fill="#ddd"/>
</svg>
